<mxfile host="app.diagrams.net" modified="2023-12-22T10:49:53.554Z" agent="Mozilla/5.0 (Windows NT 10.0; Win64; x64) AppleWebKit/537.36 (KHTML, like Gecko) Chrome/120.0.0.0 Safari/537.36" etag="4on-pGLfUYI2b6S41uh7" version="22.1.11" type="device">
  <diagram id="C5RBs43oDa-KdzZeNtuy" name="Page-1">
    <mxGraphModel dx="1509" dy="758" grid="1" gridSize="10" guides="1" tooltips="1" connect="1" arrows="1" fold="1" page="1" pageScale="1" pageWidth="827" pageHeight="1169" math="0" shadow="0">
      <root>
        <mxCell id="WIyWlLk6GJQsqaUBKTNV-0" />
        <mxCell id="WIyWlLk6GJQsqaUBKTNV-1" parent="WIyWlLk6GJQsqaUBKTNV-0" />
        <mxCell id="CSgYlb6cWF5ThP2nFrCP-2" value="레벨 7 이하" style="rhombus;whiteSpace=wrap;html=1;fontSize=14;" parent="WIyWlLk6GJQsqaUBKTNV-1" vertex="1">
          <mxGeometry x="360" y="400" width="160" height="80" as="geometry" />
        </mxCell>
        <mxCell id="CSgYlb6cWF5ThP2nFrCP-36" style="edgeStyle=orthogonalEdgeStyle;rounded=0;orthogonalLoop=1;jettySize=auto;html=1;exitX=0.5;exitY=1;exitDx=0;exitDy=0;entryX=0.5;entryY=0;entryDx=0;entryDy=0;strokeWidth=2;fontSize=14;" parent="WIyWlLk6GJQsqaUBKTNV-1" source="CSgYlb6cWF5ThP2nFrCP-3" target="CSgYlb6cWF5ThP2nFrCP-2" edge="1">
          <mxGeometry relative="1" as="geometry" />
        </mxCell>
        <mxCell id="CSgYlb6cWF5ThP2nFrCP-3" value="캐릭터&lt;br style=&quot;font-size: 14px;&quot;&gt;생존" style="rhombus;whiteSpace=wrap;html=1;fontSize=14;" parent="WIyWlLk6GJQsqaUBKTNV-1" vertex="1">
          <mxGeometry x="360" y="280" width="160" height="80" as="geometry" />
        </mxCell>
        <mxCell id="CSgYlb6cWF5ThP2nFrCP-34" style="edgeStyle=orthogonalEdgeStyle;rounded=0;orthogonalLoop=1;jettySize=auto;html=1;exitX=0.5;exitY=1;exitDx=0;exitDy=0;entryX=0.5;entryY=0;entryDx=0;entryDy=0;strokeWidth=2;fontSize=14;" parent="WIyWlLk6GJQsqaUBKTNV-1" source="CSgYlb6cWF5ThP2nFrCP-15" target="CSgYlb6cWF5ThP2nFrCP-30" edge="1">
          <mxGeometry relative="1" as="geometry" />
        </mxCell>
        <mxCell id="CSgYlb6cWF5ThP2nFrCP-15" value="시작" style="rounded=1;whiteSpace=wrap;html=1;arcSize=50;fontSize=14;" parent="WIyWlLk6GJQsqaUBKTNV-1" vertex="1">
          <mxGeometry x="360" y="40" width="160" height="80" as="geometry" />
        </mxCell>
        <mxCell id="CSgYlb6cWF5ThP2nFrCP-62" style="edgeStyle=orthogonalEdgeStyle;rounded=0;orthogonalLoop=1;jettySize=auto;html=1;exitX=0.5;exitY=1;exitDx=0;exitDy=0;entryX=0.5;entryY=0;entryDx=0;entryDy=0;strokeWidth=2;" parent="WIyWlLk6GJQsqaUBKTNV-1" source="CSgYlb6cWF5ThP2nFrCP-16" target="CSgYlb6cWF5ThP2nFrCP-59" edge="1">
          <mxGeometry relative="1" as="geometry" />
        </mxCell>
        <mxCell id="CSgYlb6cWF5ThP2nFrCP-16" value="필요&lt;br style=&quot;font-size: 14px;&quot;&gt;경험치&lt;br style=&quot;font-size: 14px;&quot;&gt;도달" style="rhombus;whiteSpace=wrap;html=1;fontSize=14;" parent="WIyWlLk6GJQsqaUBKTNV-1" vertex="1">
          <mxGeometry x="360" y="880" width="160" height="80" as="geometry" />
        </mxCell>
        <mxCell id="CSgYlb6cWF5ThP2nFrCP-35" style="edgeStyle=orthogonalEdgeStyle;rounded=0;orthogonalLoop=1;jettySize=auto;html=1;exitX=0.5;exitY=1;exitDx=0;exitDy=0;strokeWidth=2;fontSize=14;" parent="WIyWlLk6GJQsqaUBKTNV-1" source="CSgYlb6cWF5ThP2nFrCP-30" target="CSgYlb6cWF5ThP2nFrCP-3" edge="1">
          <mxGeometry relative="1" as="geometry" />
        </mxCell>
        <mxCell id="CSgYlb6cWF5ThP2nFrCP-30" value="경험치 획득&lt;br style=&quot;font-size: 14px;&quot;&gt;이벤트 발생" style="rhombus;whiteSpace=wrap;html=1;fontSize=14;" parent="WIyWlLk6GJQsqaUBKTNV-1" vertex="1">
          <mxGeometry x="360" y="160" width="160" height="80" as="geometry" />
        </mxCell>
        <mxCell id="CSgYlb6cWF5ThP2nFrCP-31" value="종료" style="rounded=1;whiteSpace=wrap;html=1;arcSize=50;fontSize=14;" parent="WIyWlLk6GJQsqaUBKTNV-1" vertex="1">
          <mxGeometry x="840" y="520" width="160" height="80" as="geometry" />
        </mxCell>
        <mxCell id="CSgYlb6cWF5ThP2nFrCP-33" value="사냥, 던전 클리어,&lt;br style=&quot;font-size: 14px;&quot;&gt;퀘스트 완료, 소비 아이템" style="text;html=1;strokeColor=none;fillColor=none;align=center;verticalAlign=middle;whiteSpace=wrap;rounded=0;fontSize=14;" parent="WIyWlLk6GJQsqaUBKTNV-1" vertex="1">
          <mxGeometry x="520" y="160" width="160" height="40" as="geometry" />
        </mxCell>
        <mxCell id="CSgYlb6cWF5ThP2nFrCP-44" style="edgeStyle=orthogonalEdgeStyle;rounded=0;orthogonalLoop=1;jettySize=auto;html=1;exitX=0.5;exitY=1;exitDx=0;exitDy=0;entryX=0.5;entryY=0;entryDx=0;entryDy=0;strokeWidth=2;fontSize=14;" parent="WIyWlLk6GJQsqaUBKTNV-1" source="CSgYlb6cWF5ThP2nFrCP-38" target="CSgYlb6cWF5ThP2nFrCP-42" edge="1">
          <mxGeometry relative="1" as="geometry" />
        </mxCell>
        <mxCell id="CSgYlb6cWF5ThP2nFrCP-38" value="레벨 상승" style="whiteSpace=wrap;html=1;fontSize=14;" parent="WIyWlLk6GJQsqaUBKTNV-1" vertex="1">
          <mxGeometry x="840" y="160" width="160" height="80" as="geometry" />
        </mxCell>
        <mxCell id="CSgYlb6cWF5ThP2nFrCP-48" value="" style="edgeStyle=orthogonalEdgeStyle;rounded=0;orthogonalLoop=1;jettySize=auto;html=1;strokeWidth=2;fontSize=14;" parent="WIyWlLk6GJQsqaUBKTNV-1" source="CSgYlb6cWF5ThP2nFrCP-41" target="CSgYlb6cWF5ThP2nFrCP-31" edge="1">
          <mxGeometry relative="1" as="geometry" />
        </mxCell>
        <mxCell id="CSgYlb6cWF5ThP2nFrCP-41" value="레벨 업 텍스트 출력" style="shape=document;whiteSpace=wrap;html=1;boundedLbl=1;fontSize=14;" parent="WIyWlLk6GJQsqaUBKTNV-1" vertex="1">
          <mxGeometry x="840" y="400" width="160" height="80" as="geometry" />
        </mxCell>
        <mxCell id="CSgYlb6cWF5ThP2nFrCP-45" style="edgeStyle=orthogonalEdgeStyle;rounded=0;orthogonalLoop=1;jettySize=auto;html=1;exitX=0.5;exitY=1;exitDx=0;exitDy=0;entryX=0.5;entryY=0;entryDx=0;entryDy=0;strokeWidth=2;fontSize=14;" parent="WIyWlLk6GJQsqaUBKTNV-1" source="CSgYlb6cWF5ThP2nFrCP-42" target="CSgYlb6cWF5ThP2nFrCP-41" edge="1">
          <mxGeometry relative="1" as="geometry" />
        </mxCell>
        <mxCell id="CSgYlb6cWF5ThP2nFrCP-42" value="레벨 업 연출 발생" style="whiteSpace=wrap;html=1;fontSize=14;" parent="WIyWlLk6GJQsqaUBKTNV-1" vertex="1">
          <mxGeometry x="840" y="280" width="160" height="80" as="geometry" />
        </mxCell>
        <mxCell id="9F6AWZ_ub-mQiCkGwfMx-12" style="edgeStyle=orthogonalEdgeStyle;rounded=0;orthogonalLoop=1;jettySize=auto;html=1;exitX=0.5;exitY=1;exitDx=0;exitDy=0;entryX=0.5;entryY=0;entryDx=0;entryDy=0;" edge="1" parent="WIyWlLk6GJQsqaUBKTNV-1" source="CSgYlb6cWF5ThP2nFrCP-54" target="CSgYlb6cWF5ThP2nFrCP-16">
          <mxGeometry relative="1" as="geometry" />
        </mxCell>
        <mxCell id="CSgYlb6cWF5ThP2nFrCP-54" value="경험치 획득" style="whiteSpace=wrap;html=1;" parent="WIyWlLk6GJQsqaUBKTNV-1" vertex="1">
          <mxGeometry x="360" y="760" width="160" height="80" as="geometry" />
        </mxCell>
        <mxCell id="CSgYlb6cWF5ThP2nFrCP-59" value="레벨 업으로 이동" style="rounded=1;whiteSpace=wrap;html=1;arcSize=50;fontSize=14;" parent="WIyWlLk6GJQsqaUBKTNV-1" vertex="1">
          <mxGeometry x="360" y="1000" width="160" height="80" as="geometry" />
        </mxCell>
        <mxCell id="CSgYlb6cWF5ThP2nFrCP-60" value="종료" style="rounded=1;whiteSpace=wrap;html=1;arcSize=50;" parent="WIyWlLk6GJQsqaUBKTNV-1" vertex="1">
          <mxGeometry x="30" y="950" width="160" height="80" as="geometry" />
        </mxCell>
        <mxCell id="CSgYlb6cWF5ThP2nFrCP-63" value="누적 경험치 &amp;gt;= 레벨 업에 필요한 경험치" style="text;html=1;strokeColor=none;fillColor=none;align=center;verticalAlign=middle;whiteSpace=wrap;rounded=0;fontSize=14;" parent="WIyWlLk6GJQsqaUBKTNV-1" vertex="1">
          <mxGeometry x="480" y="880" width="260" height="30" as="geometry" />
        </mxCell>
        <mxCell id="CSgYlb6cWF5ThP2nFrCP-73" style="edgeStyle=orthogonalEdgeStyle;rounded=0;orthogonalLoop=1;jettySize=auto;html=1;exitX=0.5;exitY=1;exitDx=0;exitDy=0;entryX=0.5;entryY=0;entryDx=0;entryDy=0;strokeWidth=2;" parent="WIyWlLk6GJQsqaUBKTNV-1" source="CSgYlb6cWF5ThP2nFrCP-72" target="CSgYlb6cWF5ThP2nFrCP-38" edge="1">
          <mxGeometry relative="1" as="geometry" />
        </mxCell>
        <mxCell id="CSgYlb6cWF5ThP2nFrCP-72" value="레벨 업&lt;br&gt;시작" style="rounded=1;whiteSpace=wrap;html=1;arcSize=50;fontSize=14;" parent="WIyWlLk6GJQsqaUBKTNV-1" vertex="1">
          <mxGeometry x="840" y="40" width="160" height="80" as="geometry" />
        </mxCell>
        <mxCell id="CSgYlb6cWF5ThP2nFrCP-79" style="edgeStyle=orthogonalEdgeStyle;rounded=0;orthogonalLoop=1;jettySize=auto;html=1;exitX=0.5;exitY=1;exitDx=0;exitDy=0;entryX=0.5;entryY=0;entryDx=0;entryDy=0;strokeWidth=2;" parent="WIyWlLk6GJQsqaUBKTNV-1" source="CSgYlb6cWF5ThP2nFrCP-74" target="CSgYlb6cWF5ThP2nFrCP-75" edge="1">
          <mxGeometry relative="1" as="geometry" />
        </mxCell>
        <mxCell id="CSgYlb6cWF5ThP2nFrCP-74" value="레벨 달성 보상" style="rounded=1;whiteSpace=wrap;html=1;arcSize=50;" parent="WIyWlLk6GJQsqaUBKTNV-1" vertex="1">
          <mxGeometry x="1241" y="40" width="160" height="80" as="geometry" />
        </mxCell>
        <mxCell id="CSgYlb6cWF5ThP2nFrCP-80" style="edgeStyle=orthogonalEdgeStyle;rounded=0;orthogonalLoop=1;jettySize=auto;html=1;exitX=0.5;exitY=1;exitDx=0;exitDy=0;entryX=0.5;entryY=0;entryDx=0;entryDy=0;strokeWidth=2;" parent="WIyWlLk6GJQsqaUBKTNV-1" source="CSgYlb6cWF5ThP2nFrCP-75" target="CSgYlb6cWF5ThP2nFrCP-76" edge="1">
          <mxGeometry relative="1" as="geometry" />
        </mxCell>
        <mxCell id="CSgYlb6cWF5ThP2nFrCP-75" value="능력치 한계치 상승" style="whiteSpace=wrap;html=1;" parent="WIyWlLk6GJQsqaUBKTNV-1" vertex="1">
          <mxGeometry x="1241" y="160" width="160" height="80" as="geometry" />
        </mxCell>
        <mxCell id="CSgYlb6cWF5ThP2nFrCP-81" style="edgeStyle=orthogonalEdgeStyle;rounded=0;orthogonalLoop=1;jettySize=auto;html=1;exitX=0.5;exitY=1;exitDx=0;exitDy=0;entryX=0.5;entryY=0;entryDx=0;entryDy=0;strokeWidth=2;" parent="WIyWlLk6GJQsqaUBKTNV-1" source="CSgYlb6cWF5ThP2nFrCP-76" target="CSgYlb6cWF5ThP2nFrCP-77" edge="1">
          <mxGeometry relative="1" as="geometry" />
        </mxCell>
        <mxCell id="CSgYlb6cWF5ThP2nFrCP-76" value="능력치 상승" style="whiteSpace=wrap;html=1;" parent="WIyWlLk6GJQsqaUBKTNV-1" vertex="1">
          <mxGeometry x="1241" y="280" width="160" height="80" as="geometry" />
        </mxCell>
        <mxCell id="CSgYlb6cWF5ThP2nFrCP-82" style="edgeStyle=orthogonalEdgeStyle;rounded=0;orthogonalLoop=1;jettySize=auto;html=1;exitX=0.5;exitY=1;exitDx=0;exitDy=0;entryX=0.5;entryY=0;entryDx=0;entryDy=0;strokeWidth=2;" parent="WIyWlLk6GJQsqaUBKTNV-1" source="CSgYlb6cWF5ThP2nFrCP-77" target="CSgYlb6cWF5ThP2nFrCP-78" edge="1">
          <mxGeometry relative="1" as="geometry" />
        </mxCell>
        <mxCell id="CSgYlb6cWF5ThP2nFrCP-77" value="해당 레벨 컨텐츠 해방" style="whiteSpace=wrap;html=1;" parent="WIyWlLk6GJQsqaUBKTNV-1" vertex="1">
          <mxGeometry x="1241" y="400" width="160" height="80" as="geometry" />
        </mxCell>
        <mxCell id="CSgYlb6cWF5ThP2nFrCP-78" value="종료" style="rounded=1;whiteSpace=wrap;html=1;arcSize=50;" parent="WIyWlLk6GJQsqaUBKTNV-1" vertex="1">
          <mxGeometry x="1241" y="520" width="160" height="80" as="geometry" />
        </mxCell>
        <mxCell id="9F6AWZ_ub-mQiCkGwfMx-7" style="edgeStyle=orthogonalEdgeStyle;rounded=0;orthogonalLoop=1;jettySize=auto;html=1;exitX=0.5;exitY=1;exitDx=0;exitDy=0;entryX=0.5;entryY=0;entryDx=0;entryDy=0;strokeWidth=2;" edge="1" parent="WIyWlLk6GJQsqaUBKTNV-1" source="9F6AWZ_ub-mQiCkGwfMx-5" target="CSgYlb6cWF5ThP2nFrCP-60">
          <mxGeometry relative="1" as="geometry" />
        </mxCell>
        <mxCell id="9F6AWZ_ub-mQiCkGwfMx-5" value="경험치 99.99%에서 정지" style="whiteSpace=wrap;html=1;" vertex="1" parent="WIyWlLk6GJQsqaUBKTNV-1">
          <mxGeometry x="30" y="830" width="160" height="80" as="geometry" />
        </mxCell>
        <mxCell id="9F6AWZ_ub-mQiCkGwfMx-16" style="edgeStyle=orthogonalEdgeStyle;rounded=0;orthogonalLoop=1;jettySize=auto;html=1;exitX=0;exitY=0.5;exitDx=0;exitDy=0;entryX=1;entryY=0.5;entryDx=0;entryDy=0;strokeWidth=2;strokeColor=#990000;" edge="1" parent="WIyWlLk6GJQsqaUBKTNV-1" source="9F6AWZ_ub-mQiCkGwfMx-13" target="9F6AWZ_ub-mQiCkGwfMx-15">
          <mxGeometry relative="1" as="geometry" />
        </mxCell>
        <mxCell id="9F6AWZ_ub-mQiCkGwfMx-13" value="레벨 3 이하" style="rhombus;whiteSpace=wrap;html=1;" vertex="1" parent="WIyWlLk6GJQsqaUBKTNV-1">
          <mxGeometry x="360" y="520" width="160" height="80" as="geometry" />
        </mxCell>
        <mxCell id="9F6AWZ_ub-mQiCkGwfMx-14" value="" style="rhombus;whiteSpace=wrap;html=1;" vertex="1" parent="WIyWlLk6GJQsqaUBKTNV-1">
          <mxGeometry x="380" y="620" width="80" height="80" as="geometry" />
        </mxCell>
        <mxCell id="9F6AWZ_ub-mQiCkGwfMx-15" value="모든 능력치&lt;br&gt;한계치 도달" style="rhombus;whiteSpace=wrap;html=1;" vertex="1" parent="WIyWlLk6GJQsqaUBKTNV-1">
          <mxGeometry x="160" y="520" width="160" height="80" as="geometry" />
        </mxCell>
      </root>
    </mxGraphModel>
  </diagram>
</mxfile>
